<?xml version="1.0" encoding="UTF-8"?>
<!DOCTYPE svg PUBLIC "-//W3C//DTD SVG 1.1//EN" "http://www.w3.org/Graphics/SVG/1.1/DTD/svg11.dtd">
<!-- Creator: CorelDRAW X6 -->
<svg xmlns="http://www.w3.org/2000/svg" xml:space="preserve" width="26.917in" height="17.539in" version="1.1" style="shape-rendering:geometricPrecision; text-rendering:geometricPrecision; image-rendering:optimizeQuality; fill-rule:evenodd; clip-rule:evenodd"
viewBox="0 0 935116 609318"
 xmlns:xlink="http://www.w3.org/1999/xlink">
 <defs>
  <style type="text/css">
   <![CDATA[
    .str2 {stroke:#373435;stroke-width:241.27}
    .str0 {stroke:#373435;stroke-width:23047.9}
    .str1 {stroke:#373435;stroke-width:23048}
    .fil1 {fill:none}
    .fil2 {fill:#373435}
    .fil0 {fill:#373435;fill-rule:nonzero}
   ]]>
  </style>
 </defs>
 <g id="Layer_x0020_1">
  <metadata id="CorelCorpID_0Corel-Layer"/>
  <g id="_246891240">
   <path class="fil0" d="M137544 468976c-458,725 -939,1638 -896,2438 203,3600 1395,6812 4589,8844 44398,28276 121891,29869 169422,-243 82807,-52351 -4405,-82093 -61742,-77263 -35527,2987 -96376,42487 -111373,66224zm-127053 131123c-3688,751 -6586,-684 -8935,-3317 -1394,-1562 -1753,-3653 -1463,-5681 2207,-15293 39334,-85065 43161,-89672 2869,-3453 2786,-10190 260,-13848 -43359,-62849 18048,-182921 58132,-235980 1862,-2465 1172,-5330 -2225,-6340 -127493,-37718 -12863,-383996 180249,-182893 994,1038 1832,2243 2635,3446 6885,10275 -8585,29833 -16283,27163 -43946,-15252 -165102,-25273 -157899,24936 2526,17892 52260,58952 70787,62351 1412,258 2888,61 4279,640 464,195 1108,131 1624,-2 32079,-8162 218701,-95512 235648,-86989 1870,939 3531,1951 3844,4244 2006,2809 1594,5846 1058,8998 -2710,15914 -19049,83321 -27670,95302 -1829,2537 -4070,4377 -7363,4711 -80698,8090 -344955,113670 -299548,220062 174,408 368,817 618,1185 435,647 1418,916 2081,514 564,-342 1104,-763 1562,-1238 12631,-13121 38228,-41578 67142,-67176 73762,-65307 189955,-67396 225270,-3470 9979,18064 13085,43377 10525,70442 -16379,173131 -238800,240973 -321046,122191 -7114,-10289 -33946,43832 -66444,50422z"/>
   <g>
    <g>
     <path class="fil1 str0" d="M935113 361630l-88104 0 0 93779 88104 0m-222051 -105244l0 105244 66973 0 0 -105244m66973 11465l0 93779 -66973 0 0 -105244m-66973 0l0 105244 -270585 0 0 -105244"/>
    </g>
    <g>
     <path class="fil1 str1" d="M570710 388213c5049,0 9142,4093 9142,9142 0,5049 -4093,9142 -9142,9142 -5049,0 -9142,-4093 -9142,-9142 0,-5049 4093,-9142 9142,-9142z"/>
     <path id="1" class="fil2" d="M570710 388213c5049,0 9142,4093 9142,9142 0,5049 -4093,9142 -9142,9142 -5049,0 -9142,-4093 -9142,-9142 0,-5049 4093,-9142 9142,-9142z"/>
    </g>
    <g>
     <path class="fil1 str1" d="M748229 491284c5049,0 9142,4093 9142,9142 0,5049 -4093,9142 -9142,9142 -5049,0 -9142,-4093 -9142,-9142 0,-5049 4093,-9142 9142,-9142z"/>
     <path id="1" class="fil2" d="M748229 491284c5049,0 9142,4093 9142,9142 0,5049 -4093,9142 -9142,9142 -5049,0 -9142,-4093 -9142,-9142 0,-5049 4093,-9142 9142,-9142z"/>
    </g>
    <g>
     <path class="fil1 str1" d="M815984 491284c5049,0 9142,4093 9142,9142 0,5049 -4093,9142 -9142,9142 -5049,0 -9142,-4093 -9142,-9142 0,-5049 4093,-9142 9142,-9142z"/>
     <path id="1" class="fil2" d="M815984 491284c5049,0 9142,4093 9142,9142 0,5049 -4093,9142 -9142,9142 -5049,0 -9142,-4093 -9142,-9142 0,-5049 4093,-9142 9142,-9142z"/>
    </g>
   </g>
   <g>
    <path class="fil0" d="M510820 307091l0 -25424c-5297,443 -11004,1033 -17158,1808 -6154,738 -10817,1624 -13988,2657 -3917,1218 -6901,3026 -8952,5351 -2052,2362 -3096,5461 -3096,9299 0,2546 224,4576 634,6199 448,1587 1529,3100 3283,4539 1641,1439 3655,2509 5968,3210 2313,701 5931,1033 10854,1033 3917,0 7870,-812 11862,-2398 4029,-1587 7572,-3690 10593,-6273zm0 18819c-2089,1587 -4737,3506 -7833,5756 -3133,2214 -6080,3985 -8840,5277 -3842,1734 -7833,3026 -11974,3875 -4140,849 -8691,1291 -13652,1291 -11601,0 -21336,-3579 -29169,-10738 -7871,-7159 -11787,-16273 -11787,-27417 0,-8893 2014,-16162 6006,-21771 3991,-5646 9661,-10111 16972,-13358 7274,-3247 16301,-5572 27043,-6937 10743,-1365 21896,-2362 33459,-3026l0 -664c0,-6679 -2760,-11328 -8281,-13875 -5520,-2546 -13652,-3838 -24395,-3838 -6453,0 -13354,1144 -20665,3395 -7348,2288 -12608,4022 -15815,5240l-3581 0 0 -29373c4140,-1070 10892,-2362 20217,-3838 9325,-1476 18688,-2214 28050,-2214 22306,0 38420,3395 48304,10221 9922,6827 14883,17528 14883,32140l0 82731 -38942 0 0 -12878zm149501 -18819l0 -25424c-5297,443 -11004,1033 -17158,1808 -6154,738 -10817,1624 -13988,2657 -3917,1218 -6901,3026 -8952,5351 -2052,2362 -3096,5461 -3096,9299 0,2546 224,4576 634,6199 448,1587 1529,3100 3283,4539 1641,1439 3655,2509 5968,3210 2313,701 5931,1033 10854,1033 3917,0 7870,-812 11862,-2398 4029,-1587 7572,-3690 10593,-6273zm0 18819c-2089,1587 -4737,3506 -7833,5756 -3133,2214 -6080,3985 -8840,5277 -3842,1734 -7833,3026 -11974,3875 -4140,849 -8691,1291 -13652,1291 -11601,0 -21336,-3579 -29169,-10738 -7871,-7159 -11787,-16273 -11787,-27417 0,-8893 2014,-16162 6006,-21771 3991,-5646 9661,-10111 16972,-13358 7274,-3247 16301,-5572 27043,-6937 10743,-1365 21896,-2362 33459,-3026l0 -664c0,-6679 -2760,-11328 -8281,-13875 -5520,-2546 -13652,-3838 -24395,-3838 -6453,0 -13354,1144 -20665,3395 -7348,2288 -12608,4022 -15815,5240l-3581 0 0 -29373c4140,-1070 10892,-2362 20217,-3838 9325,-1476 18688,-2214 28050,-2214 22306,0 38420,3395 48304,10221 9922,6827 14883,17528 14883,32140l0 82731 -38942 0 0 -12878zm274795 12878l-39390 0 0 -60148c0,-4908 -261,-9779 -746,-14650 -522,-4871 -1417,-8450 -2648,-10738 -1455,-2657 -3581,-4613 -6378,-5830 -2797,-1218 -6714,-1845 -11712,-1845 -3581,0 -7199,590 -10892,1734 -3656,1144 -7647,2989 -11936,5498l0 85978 -39389 0 0 -121329 39389 0 0 13432c6975,-5424 13689,-9557 20105,-12436 6453,-2878 13577,-4317 21411,-4317 13242,0 23574,3801 31034,11439 7423,7638 11153,19041 11153,34244l0 78967z"/>
    <path class="fil2 str2" d="M768100 212853c-12664,4795 -25327,4642 -37991,0 0,29722 0,59443 0,89164 0,2439 -300,4897 0,7317 3446,27752 22922,32234 39974,31852 6888,-154 18739,-945 25076,-3120l0 -28732c0,-243 -526,70 -846,113 -3313,441 -10569,1409 -15553,2074 -5992,-1162 -10182,-4898 -10659,-13939 0,-28243 0,-56486 0,-84728z"/>
    <path class="fil2" d="M748639 159419c13103,0 23726,9399 23726,20992 0,11594 -10622,20992 -23726,20992 -13104,0 -23726,-9399 -23726,-20992 0,-11593 10622,-20992 23726,-20992z"/>
   </g>
  </g>
 </g>
</svg>
