<?xml version="1.0" encoding="UTF-8"?>
<!DOCTYPE svg PUBLIC "-//W3C//DTD SVG 1.1//EN" "http://www.w3.org/Graphics/SVG/1.1/DTD/svg11.dtd">
<!-- Creator: CorelDRAW X6 -->
<svg xmlns="http://www.w3.org/2000/svg" xml:space="preserve" width="26.917in" height="17.539in" version="1.1" style="shape-rendering:geometricPrecision; text-rendering:geometricPrecision; image-rendering:optimizeQuality; fill-rule:evenodd; clip-rule:evenodd"
viewBox="0 0 8433 5495"
 xmlns:xlink="http://www.w3.org/1999/xlink">
 <defs>
  <style type="text/css">
   <![CDATA[
    .fil0 {fill:#373435;fill-rule:nonzero}
   ]]>
  </style>
 </defs>
 <g id="Layer_x0020_1">
  <metadata id="CorelCorpID_0Corel-Layer"/>
  <path class="fil0" d="M1240 4229c-4,7 -8,15 -8,22 2,32 13,61 41,80 400,255 1099,269 1528,-2 747,-472 -40,-740 -557,-697 -320,27 -869,383 -1004,597zm5511 -2306c118,0 214,85 214,189 0,105 -96,189 -214,189 -118,0 -214,-85 -214,-189 0,-105 96,-189 214,-189zm175 482c-114,43 -228,42 -343,0 0,268 0,536 0,804 0,22 -3,44 0,66 31,250 207,291 360,287 62,-1 169,-9 226,-28l0 -259c0,-2 -5,1 -8,1 -30,4 -95,13 -140,19 -54,-10 -92,-44 -96,-126 0,-255 0,-509 0,-764zm1506 1136l-355 0 0 -542c0,-44 -2,-88 -7,-132 -5,-44 -13,-76 -24,-97 -13,-24 -32,-42 -58,-53 -25,-11 -61,-17 -106,-17 -32,0 -65,5 -98,16 -33,10 -69,27 -108,50l0 775 -355 0 0 -1094 355 0 0 121c63,-49 123,-86 181,-112 58,-26 122,-39 193,-39 119,0 213,34 280,103 67,69 101,172 101,309l0 712zm-2478 -286l0 -229c-48,4 -99,9 -155,16 -56,7 -98,15 -126,24 -35,11 -62,27 -81,48 -19,21 -28,49 -28,84 0,23 2,41 6,56 4,14 14,28 30,41 15,13 33,23 54,29 21,6 53,9 98,9 35,0 71,-7 107,-22 36,-14 68,-33 96,-57zm0 170c-19,14 -43,32 -71,52 -28,20 -55,36 -80,48 -35,16 -71,27 -108,35 -37,8 -78,12 -123,12 -105,0 -192,-32 -263,-97 -71,-65 -106,-147 -106,-247 0,-80 18,-146 54,-196 36,-51 87,-91 153,-120 66,-29 147,-50 244,-63 97,-12 197,-21 302,-27l0 -6c0,-60 -25,-102 -75,-125 -50,-23 -123,-35 -220,-35 -58,0 -120,10 -186,31 -66,21 -114,36 -143,47l-32 0 0 -265c37,-10 98,-21 182,-35 84,-13 169,-20 253,-20 201,0 346,31 436,92 89,62 134,158 134,290l0 746 -351 0 0 -116zm-1348 -170l0 -229c-48,4 -99,9 -155,16 -56,7 -98,15 -126,24 -35,11 -62,27 -81,48 -19,21 -28,49 -28,84 0,23 2,41 6,56 4,14 14,28 30,41 15,13 33,23 54,29 21,6 53,9 98,9 35,0 71,-7 107,-22 36,-14 68,-33 96,-57zm0 170c-19,14 -43,32 -71,52 -28,20 -55,36 -80,48 -35,16 -71,27 -108,35 -37,8 -78,12 -123,12 -105,0 -192,-32 -263,-97 -71,-65 -106,-147 -106,-247 0,-80 18,-146 54,-196 36,-51 87,-91 153,-120 66,-29 147,-50 244,-63 97,-12 197,-21 302,-27l0 -6c0,-60 -25,-102 -75,-125 -50,-23 -123,-35 -220,-35 -58,0 -120,10 -186,31 -66,21 -114,36 -143,47l-32 0 0 -265c37,-10 98,-21 182,-35 84,-13 169,-20 253,-20 201,0 346,31 436,92 89,62 134,158 134,290l0 746 -351 0 0 -116zm-4512 1987c-33,7 -59,-6 -81,-30 -13,-14 -16,-33 -13,-51 20,-138 355,-767 389,-809 26,-31 25,-92 2,-125 -391,-567 163,-1650 524,-2128 17,-22 11,-48 -20,-57 -1150,-340 -116,-3463 1626,-1649 9,9 17,20 24,31 62,93 -77,269 -147,245 -396,-138 -1489,-228 -1424,225 23,161 471,532 638,562 13,2 26,1 39,6 4,2 10,1 15,0 289,-74 1972,-861 2125,-784 17,8 32,18 35,38 18,25 14,53 10,81 -24,144 -172,751 -250,859 -16,23 -37,39 -66,42 -728,73 -3111,1025 -2701,1985 2,4 3,7 6,11 4,6 13,8 19,5 5,-3 10,-7 14,-11 114,-118 345,-375 606,-606 665,-589 1713,-608 2032,-31 90,163 118,391 95,635 -148,1561 -2154,2173 -2895,1102 -64,-93 -306,395 -599,455z"/>
 </g>
</svg>
