<?xml version="1.0" encoding="UTF-8"?>
<!DOCTYPE svg PUBLIC "-//W3C//DTD SVG 1.1//EN" "http://www.w3.org/Graphics/SVG/1.1/DTD/svg11.dtd">
<!-- Creator: CorelDRAW X6 -->
<svg xmlns="http://www.w3.org/2000/svg" xml:space="preserve" width="26.917in" height="17.539in" version="1.1" style="shape-rendering:geometricPrecision; text-rendering:geometricPrecision; image-rendering:optimizeQuality; fill-rule:evenodd; clip-rule:evenodd"
viewBox="0 0 8299 5407"
 xmlns:xlink="http://www.w3.org/1999/xlink">
 <defs>
  <style type="text/css">
   <![CDATA[
    .str0 {stroke:#373435;stroke-width:2.14113}
    .str1 {stroke:#373435;stroke-width:204.536}
    .str2 {stroke:#373435;stroke-width:204.537}
    .fil2 {fill:none}
    .fil1 {fill:#373435}
    .fil0 {fill:#373435;fill-rule:nonzero}
   ]]>
  </style>
 </defs>
 <g id="Layer_x0020_1">
  <metadata id="CorelCorpID_0Corel-Layer"/>
  <g id="_246892464">
   <path class="fil0" d="M1221 4162c-4,6 -8,15 -8,22 2,32 12,60 41,78 394,251 1082,265 1504,-2 735,-465 -39,-729 -548,-686 -315,27 -855,377 -988,588zm-1128 1164c-33,7 -58,-6 -79,-29 -12,-14 -16,-32 -13,-50 20,-136 349,-755 383,-796 25,-31 25,-90 2,-123 -385,-558 160,-1623 516,-2094 17,-22 10,-47 -20,-56 -1131,-335 -114,-3408 1600,-1623 9,9 16,20 23,31 61,91 -76,265 -145,241 -390,-135 -1465,-224 -1401,221 22,159 464,523 628,553 13,2 26,1 38,6 4,2 10,1 14,0 285,-72 1941,-848 2091,-772 17,8 31,17 34,38 18,25 14,52 9,80 -24,141 -169,739 -246,846 -16,23 -36,39 -65,42 -716,72 -3061,1009 -2658,1953 2,4 3,7 5,11 4,6 13,8 18,5 5,-3 10,-7 14,-11 112,-116 339,-369 596,-596 655,-580 1686,-598 1999,-31 89,160 116,385 93,625 -145,1536 -2119,2138 -2849,1084 -63,-91 -301,389 -590,447z"/>
   <path class="fil0" d="M4533 2725l0 -226c-47,4 -98,9 -152,16 -55,7 -96,14 -124,24 -35,11 -61,27 -79,47 -18,21 -27,48 -27,83 0,23 2,41 6,55 4,14 14,28 29,40 15,13 32,22 53,28 21,6 53,9 96,9 35,0 70,-7 105,-21 36,-14 67,-33 94,-56zm0 167c-19,14 -42,31 -70,51 -28,20 -54,35 -78,47 -34,15 -70,27 -106,34 -37,8 -77,11 -121,11 -103,0 -189,-32 -259,-95 -70,-64 -105,-144 -105,-243 0,-79 18,-143 53,-193 35,-50 86,-90 151,-119 65,-29 145,-49 240,-62 95,-12 194,-21 297,-27l0 -6c0,-59 -24,-101 -73,-123 -49,-23 -121,-34 -216,-34 -57,0 -119,10 -183,30 -65,20 -112,36 -140,47l-32 0 0 -261c37,-9 97,-21 179,-34 83,-13 166,-20 249,-20 198,0 341,30 429,91 88,61 132,156 132,285l0 734 -346 0 0 -114zm1327 -167l0 -226c-47,4 -98,9 -152,16 -55,7 -96,14 -124,24 -35,11 -61,27 -79,47 -18,21 -27,48 -27,83 0,23 2,41 6,55 4,14 14,28 29,40 15,13 32,22 53,28 21,6 53,9 96,9 35,0 70,-7 105,-21 36,-14 67,-33 94,-56zm0 167c-19,14 -42,31 -70,51 -28,20 -54,35 -78,47 -34,15 -70,27 -106,34 -37,8 -77,11 -121,11 -103,0 -189,-32 -259,-95 -70,-64 -105,-144 -105,-243 0,-79 18,-143 53,-193 35,-50 86,-90 151,-119 65,-29 145,-49 240,-62 95,-12 194,-21 297,-27l0 -6c0,-59 -24,-101 -73,-123 -49,-23 -121,-34 -216,-34 -57,0 -119,10 -183,30 -65,20 -112,36 -140,47l-32 0 0 -261c37,-9 97,-21 179,-34 83,-13 166,-20 249,-20 198,0 341,30 429,91 88,61 132,156 132,285l0 734 -346 0 0 -114zm2439 114l-350 0 0 -534c0,-44 -2,-87 -7,-130 -5,-43 -13,-75 -24,-95 -13,-24 -32,-41 -57,-52 -25,-11 -60,-16 -104,-16 -32,0 -64,5 -97,15 -32,10 -68,27 -106,49l0 763 -350 0 0 -1077 350 0 0 119c62,-48 121,-85 178,-110 57,-26 120,-38 190,-38 118,0 209,34 275,102 66,68 99,169 99,304l0 701z"/>
   <path class="fil1 str0" d="M6816 1889c-112,43 -225,41 -337,0 0,264 0,528 0,791 0,22 -3,43 0,65 31,246 203,286 355,283 61,-1 166,-8 223,-28l0 -255c0,-2 -5,1 -8,1 -29,4 -94,13 -138,18 -53,-10 -90,-43 -95,-124 0,-251 0,-501 0,-752z"/>
   <g>
    <path class="fil2 str1" d="M8299 3209l-782 0 0 832 782 0m-1971 -934l0 934 594 0 0 -934m594 102l0 832 -594 0 0 -934m-594 0l0 934 -2401 0 0 -934"/>
   </g>
   <g>
    <path class="fil2 str2" d="M5065 3445c45,0 81,36 81,81 0,45 -36,81 -81,81 -45,0 -81,-36 -81,-81 0,-45 36,-81 81,-81z"/>
    <path id="1" class="fil1" d="M5065 3445c45,0 81,36 81,81 0,45 -36,81 -81,81 -45,0 -81,-36 -81,-81 0,-45 36,-81 81,-81z"/>
   </g>
   <g>
    <path class="fil2 str2" d="M6640 4360c45,0 81,36 81,81 0,45 -36,81 -81,81 -45,0 -81,-36 -81,-81 0,-45 36,-81 81,-81z"/>
    <path id="1" class="fil1" d="M6640 4360c45,0 81,36 81,81 0,45 -36,81 -81,81 -45,0 -81,-36 -81,-81 0,-45 36,-81 81,-81z"/>
   </g>
   <g>
    <path class="fil2 str2" d="M7241 4360c45,0 81,36 81,81 0,45 -36,81 -81,81 -45,0 -81,-36 -81,-81 0,-45 36,-81 81,-81z"/>
    <path id="1" class="fil1" d="M7241 4360c45,0 81,36 81,81 0,45 -36,81 -81,81 -45,0 -81,-36 -81,-81 0,-45 36,-81 81,-81z"/>
   </g>
  </g>
 </g>
</svg>
